<svg xmlns="http://www.w3.org/2000/svg" width="15.701" height="11.96" viewBox="0 0 15.701 11.96"><defs><style>.a{fill:#ff620a;}</style></defs><path class="a" d="M14.321,61H1.38A1.382,1.382,0,0,0,0,62.38v9.2a1.382,1.382,0,0,0,1.38,1.38H14.321a1.382,1.382,0,0,0,1.38-1.38v-9.2A1.382,1.382,0,0,0,14.321,61Zm-.191.92L7.88,68.171l-6.3-6.251ZM.92,71.389V62.566l4.431,4.393Zm.651.65L6,67.606l1.553,1.54a.46.46,0,0,0,.649,0L9.721,67.63l4.409,4.409Zm13.211-.651L10.372,66.98l4.409-4.409Z" transform="translate(0 -61)"/></svg>