<svg xmlns="http://www.w3.org/2000/svg" width="185.964" height="57.128" viewBox="0 0 185.964 57.128"><defs><style>.a{fill:#ff5c01;}.a,.b{fill-rule:evenodd;}.b,.c{fill:#fff;}</style></defs><path class="a" d="M8509.049,13721.872v-6.3a19.171,19.171,0,1,1,16.465,0h0l-11.382-14.806v-2.213h3.425a4.041,4.041,0,1,0,0-8.063h-5.191v22.764a14.535,14.535,0,0,0,4.859.771,12.838,12.838,0,0,0,2.1-.109h0l2.318,2.984h0l.111.109v17.237a1.878,1.878,0,1,1-3.757,0v-16.794h-.773a17.743,17.743,0,0,1-4.859-.666v10.279a1.7,1.7,0,0,1-1.657,1.654h0a1.7,1.7,0,0,1-1.659-1.654Zm17.459-10.828a15.849,15.849,0,1,0-25.083-12.817,16.115,16.115,0,0,0,7.624,13.593v-24.754h8.508a7.245,7.245,0,0,1,7.626,7.4,7,7,0,0,1-6.078,7.185Z" transform="translate(-8498 -13679)"/><path class="a" d="M8756.212,14039a2.211,2.211,0,1,0,2.208,2.209A2.217,2.217,0,0,0,8756.212,14039Z" transform="translate(-8725.712 -13999.22)"/><g transform="translate(28.287 39.778)"><path class="a" d="M8765.331,14042.225h.111c.11,0,.11,0,.11-.112h0V14042h-.333a.109.109,0,0,0-.11.111h.11A.109.109,0,0,0,8765.331,14042.225Z" transform="translate(-8763.785 -14041.67)"/><path class="a" d="M8768.221,14043.111h0a.831.831,0,0,0-.221.439c.11,0,.11-.109.221-.109v-.111h0l.11-.109V14043h0l-.11.111Z" transform="translate(-8766.452 -14042.557)"/><path class="a" d="M8768.331,14048H8768l.11.107h.442a.108.108,0,0,0,.111-.107h-.333Z" transform="translate(-8766.452 -14047.008)"/><path class="a" d="M8769.222,14044.33h0c.111,0,.111,0,.223.111h0v-.111c-.111-.111-.223-.221-.223-.33,0,.109,0,.219-.112.219h0v.111a.108.108,0,0,0-.109.111h.109v-.111Z" transform="translate(-8767.342 -14043.447)"/><path class="a" d="M8769.222,14049.443a.377.377,0,0,1,.111-.223c0-.109,0-.109.111-.221h-.335v.111A.4.4,0,0,1,8769.222,14049.443Z" transform="translate(-8767.342 -14047.895)"/><path class="a" d="M8775.221,14055a.41.41,0,0,1-.109.33l-.109.109a.107.107,0,0,1,.109-.109h.332l.11.109-.11-.109-.111-.111h0C8775.332,14055.108,8775.332,14055.108,8775.221,14055Z" transform="translate(-8772.684 -14053.232)"/><path class="a" d="M8782.109,14055.22l-.109.111v0h.33a.11.11,0,0,1,.113.109.11.11,0,0,0-.113-.109.41.41,0,0,1-.109-.33h0C8782.109,14055.108,8782.109,14055.108,8782.109,14055.22Z" transform="translate(-8778.907 -14053.232)"/><path class="a" d="M8781.111,14054.443a.11.11,0,0,1,.111-.113.41.41,0,0,1,.107-.328h-.107v.111h-.111c-.111.109-.111.217-.111.439h0A.108.108,0,0,1,8781.111,14054.443Z" transform="translate(-8778.017 -14052.344)"/><path class="a" d="M8778.33,14054.443a.393.393,0,0,1,.113-.33.109.109,0,0,1,.11-.111h-.11a.11.11,0,0,1-.113.111c-.11,0-.221,0-.221-.111H8778a.108.108,0,0,1,.109.111c.11.109.11.217.221.33Z" transform="translate(-8775.349 -14052.344)"/><path class="a" d="M8778.33,14053.11h.224a.108.108,0,0,0-.11-.111h-.334a.108.108,0,0,0-.109.111h.33Z" transform="translate(-8775.349 -14051.451)"/><path class="a" d="M8778.33,14049.443h.113c-.113-.114-.113-.223-.113-.443v.111c-.11.109-.11.218-.221.332h.221Z" transform="translate(-8775.349 -14047.895)"/><path class="a" d="M8778.109,14049.329a.4.4,0,0,0,.11-.329.108.108,0,0,0-.11.111c-.109,0-.109.109-.109.218v.114h0A.11.11,0,0,0,8778.109,14049.329Z" transform="translate(-8775.349 -14047.895)"/><path class="a" d="M8775.221,14049.443c.111-.223.111-.332.223-.443h-.332c0,.111,0,.111.109.221h0Z" transform="translate(-8772.684 -14047.895)"/><path class="a" d="M8774.331,14049.443c0-.114,0-.114-.108-.223v-.109c-.11-.111-.11-.111-.223-.111l.112.111c0,.109,0,.218.11.218,0,.114.108.114.108.224Z" transform="translate(-8771.791 -14047.895)"/><path class="a" d="M8775.111,14048.109h.332a.107.107,0,0,0,.11-.107H8775C8775,14048.109,8775,14048.109,8775.111,14048.109Z" transform="translate(-8772.684 -14047.008)"/><path class="a" d="M8771.332,14049.111V14049h0a17.714,17.714,0,0,1-.223.221c0,.108-.108.108-.108.223v.109l.22-.224A.376.376,0,0,0,8771.332,14049.111Z" transform="translate(-8769.122 -14047.895)"/><path class="a" d="M8772.221,14049c0,.221,0,.329-.109.443h.331C8772.331,14049.329,8772.331,14049.221,8772.221,14049Z" transform="translate(-8770.011 -14047.895)"/><path class="a" d="M8771.332,14053h-.111c-.111,0-.111,0-.22.111h.663a.109.109,0,0,0-.111-.111Z" transform="translate(-8769.122 -14051.451)"/><path class="a" d="M8772.221,14054.113a.108.108,0,0,1-.109-.111H8772l.111.111a.4.4,0,0,1,.109.33c.11-.113.11-.221.222-.33V14054h0c-.111.111-.111.111-.222.111Z" transform="translate(-8770.011 -14052.344)"/><path class="a" d="M8771.332,14054.553a.654.654,0,0,0-.111-.439h0c-.111,0-.111-.111-.22-.111h0v.111c.108.109.108.217.22.33Z" transform="translate(-8769.122 -14052.344)"/><path class="a" d="M8774.223,14054.113a.566.566,0,0,0-.223.439c.112,0,.112-.109.223-.109a.376.376,0,0,1,.108-.221V14054h0l-.108.111Z" transform="translate(-8771.791 -14052.344)"/><path class="a" d="M8778,14054v.328c.109,0,.109,0,.109.113l.11.109a.658.658,0,0,0-.11-.439h0a.108.108,0,0,1-.109-.111Z" transform="translate(-8775.349 -14052.344)"/><path class="a" d="M8775.443,14058.332a.209.209,0,0,0-.332,0H8775l.109.111h.332a.108.108,0,0,1,.11-.111h-.11Z" transform="translate(-8772.684 -14056.122)"/><path class="a" d="M8781.111,14058.107H8781l.111.113h.33l.111-.113h-.111a.108.108,0,0,0-.111-.107c-.107,0-.107,0-.219.107Z" transform="translate(-8778.017 -14055.9)"/><path class="a" d="M8781.111,14059.112a.108.108,0,0,1-.111-.109h0c0,.217,0,.33.111.439h0l.111.113h.107a.423.423,0,0,1-.107-.336A.108.108,0,0,1,8781.111,14059.112Z" transform="translate(-8778.017 -14056.794)"/><path class="a" d="M8778.109,14059.442c.11-.109.11-.223.11-.439h0a.108.108,0,0,1-.11.109c0,.107,0,.107-.109.107h0v.336h0Z" transform="translate(-8775.349 -14056.794)"/><path class="a" d="M8775.332,14060.109a.108.108,0,0,0,.111-.109h-.332a.406.406,0,0,1,.109.33c.111,0,.111-.109.111-.221Z" transform="translate(-8772.684 -14057.682)"/><path class="a" d="M8774.331,14059.442c0-.109-.108-.223-.108-.33-.11,0-.11,0-.223-.109a.575.575,0,0,0,.223.439h0a.108.108,0,0,0,.108.113h0Z" transform="translate(-8771.791 -14056.794)"/><path class="a" d="M8772.442,14060.33c-.111-.109-.111-.221-.222-.33a.406.406,0,0,1-.109.33.109.109,0,0,1-.111.112h.442Z" transform="translate(-8770.011 -14057.682)"/><path class="a" d="M8771.221,14059.442c.111-.109.111-.223.111-.439a.108.108,0,0,1-.111.109.4.4,0,0,0-.111.33.11.11,0,0,0-.108.113h.108A.11.11,0,0,1,8771.221,14059.442Z" transform="translate(-8769.122 -14056.794)"/><path class="a" d="M8769.222,14060.33c0-.109.111-.221.223-.33h-.335v.109h0A.341.341,0,0,1,8769.222,14060.33Z" transform="translate(-8767.342 -14057.682)"/><path class="a" d="M8768.221,14059.22v-.107c-.11,0-.11,0-.221-.109h0a.574.574,0,0,0,.221.439h0v.113h.11c0-.113,0-.223-.11-.223Z" transform="translate(-8766.452 -14056.794)"/><path class="a" d="M8768.221,14058.221h.332a.11.11,0,0,1,.111-.113h-.111c-.109-.107-.109-.107-.222-.107h-.11v.107H8768c.11,0,.11,0,.11.113Z" transform="translate(-8766.452 -14055.9)"/><path class="a" d="M8769.109,14055.331h.335v0c-.111-.111-.223-.223-.223-.33,0,.107,0,.107-.112.219h0v.111c-.109,0-.109,0-.109.109,0-.109,0-.109.109-.109Z" transform="translate(-8767.342 -14053.232)"/><path class="a" d="M8768.221,14054.443v-.221c.11,0,.11-.109.11-.221h-.11v.111h0a.564.564,0,0,0-.221.439h0C8768.11,14054.443,8768.11,14054.443,8768.221,14054.443Z" transform="translate(-8766.452 -14052.344)"/><path class="a" d="M8766.222,14054.443c0-.113.109-.221.221-.33V14054h0c-.111.111-.111.111-.221.111a.109.109,0,0,1-.111-.111H8766a.109.109,0,0,0,.11.111c0,.109.111.217.111.33Z" transform="translate(-8764.672 -14052.344)"/><path class="a" d="M8765.331,14054.553c0-.109-.111-.33-.111-.439h-.11V14054H8765c0,.111,0,.221.108.221v.107l.11.113a.108.108,0,0,0,.111.109Z" transform="translate(-8763.785 -14052.344)"/><path class="a" d="M8765.22,14053.11h.441a.108.108,0,0,0-.108-.111h-.443a.107.107,0,0,1-.108.111h.219Z" transform="translate(-8763.785 -14051.451)"/><path class="a" d="M8766.11,14049.443h.332c-.111-.114-.221-.223-.221-.332V14049c0,.221-.111.329-.111.443h0Z" transform="translate(-8764.672 -14047.895)"/><path class="a" d="M8768,14049c0,.111.11.221.221.329h0v.114h.11v-.114a.107.107,0,0,0-.11-.108v-.109C8768.11,14049,8768.11,14049,8768,14049Z" transform="translate(-8766.452 -14047.895)"/><path class="a" d="M8765.22,14049.329a.376.376,0,0,0,.111-.218V14049h0c-.111,0-.111,0-.111.111a.107.107,0,0,0-.11.109.106.106,0,0,1-.108.108v.224a.106.106,0,0,1,.108-.109Z" transform="translate(-8763.785 -14047.895)"/><path class="a" d="M8763.221,14049.443a.4.4,0,0,1,.109-.332l.11-.111H8763l.111.111a.4.4,0,0,1,.109.332Z" transform="translate(-8762.006 -14047.895)"/><path class="a" d="M8762.333,14049.553a.406.406,0,0,0-.11-.332.107.107,0,0,0-.11-.109h0c0-.111,0-.111-.112-.111h0c0,.111,0,.221.112.221v.108l.11.114h.11Z" transform="translate(-8761.116 -14047.895)"/><path class="a" d="M8762.223,14048.109h.33l.11-.107H8762a.109.109,0,0,0,.112.107h.11Z" transform="translate(-8761.116 -14047.008)"/><path class="a" d="M8763.221,14044.33h.109a.109.109,0,0,0,.11.111h0v-.111c-.11,0-.11,0-.11-.111h0c-.109-.109-.109-.109-.109-.219,0,.109,0,.109-.109.219h0c0,.111,0,.111-.111.111v.111h0a.109.109,0,0,0,.111-.111Z" transform="translate(-8762.006 -14043.447)"/><path class="a" d="M8765.109,14043.33a11.8,11.8,0,0,0,.222.221h0a.4.4,0,0,0-.111-.33v-.109h-.11a.107.107,0,0,0-.108-.111h0a.406.406,0,0,0,.108.33Z" transform="translate(-8763.785 -14042.557)"/><path class="a" d="M8766.11,14044.109a.339.339,0,0,1,.111.221h0c0-.111.109-.221.221-.33h-.332v.109Z" transform="translate(-8764.672 -14043.447)"/><path class="a" d="M8762.223,14043.33a.4.4,0,0,0,.11-.33h0a.108.108,0,0,0-.11.111h-.11a.4.4,0,0,1-.112.33v.109h0a8.9,8.9,0,0,0,.223-.221Z" transform="translate(-8761.116 -14042.557)"/><path class="a" d="M8771,14043.111c.108.109.108.219.22.33l.111.109h0a.4.4,0,0,0-.111-.33v-.109c-.111,0-.111-.111-.22-.111h0Z" transform="translate(-8769.122 -14042.557)"/><path class="a" d="M8757.547,14040.223l.11.109a.109.109,0,0,0,.112-.109h.44l.11.109h0c.109,0,.109,0,.109-.109h.443a.107.107,0,0,1,.109.109h.11l.112.109c.111.111.111.223.222.334h0v.109h0a.107.107,0,0,0,.109.109h0c.11.113.11.113.11.221h0a.4.4,0,0,1,.11.223v.109h.108v.111a.11.11,0,0,1,.113.111.406.406,0,0,1,.109.329h0a.412.412,0,0,1-.109.334.108.108,0,0,1-.113.108v.113h0c-.108,0-.108,0-.108.11v.106a.4.4,0,0,0-.11.224h0a.108.108,0,0,0-.11.109h0a.108.108,0,0,0-.109.111h0v.111h0c-.11.111-.11.221-.222.331l-.112.111h-.11c0,.108,0,.108-.109.108h-.443a.106.106,0,0,0-.109-.108.107.107,0,0,1-.11.108h-.44a.107.107,0,0,0-.112-.108h0a.107.107,0,0,1-.11.108h-.441a.107.107,0,0,1-.109-.108h-.11a.109.109,0,0,0-.111-.111c0-.11-.11-.22-.11-.331h0v-.111h0a.109.109,0,0,1-.11-.111h-.11v-.109h0a.34.34,0,0,1-.113-.224v-.217h-.109a.109.109,0,0,1-.11-.113.107.107,0,0,0-.11-.108v-.334h0v-.329a.109.109,0,0,0,.11-.111l.11-.111h.109v-.109c0-.109,0-.223.113-.223v-.221h.11a.107.107,0,0,1,.11-.109v-.109h0c0-.111.11-.223.11-.334.111,0,.111,0,.111-.109h.11a.107.107,0,0,0,.109-.109h.441Zm1.989,3.2h.11v-.111h.11c0-.111,0-.111.108-.111v-.219a.345.345,0,0,0,.113-.221,1.429,1.429,0,0,0,.109-.666h0a.836.836,0,0,0-.109-.552v-.109c0-.109,0-.109-.113-.223v-.107l-.108-.113v-.109a.108.108,0,0,1-.11-.109h-.11a.391.391,0,0,0-.109-.223c-.11,0-.11-.111-.222-.111h0a.109.109,0,0,0-.112-.109c-.11-.109-.11-.109-.22-.109l-.11-.111h-.22c-.113,0-.223-.11-.333-.11h-.333c-.107,0-.107,0-.22.11h-.331l-.11.111h-.11l-.109.109h-.11a.108.108,0,0,1-.111.109l-.11.111c-.11,0-.11.111-.221.223h0l-.113.109h0c0,.109-.109.109-.109.223a.106.106,0,0,1-.11.107.4.4,0,0,1-.11.332v.552h0v.666a.107.107,0,0,1,.11.106v.114c.11.109.11.109.11.219h0a.108.108,0,0,1,.109.111l.113.111v.111c.11,0,.11.109.221.109a.108.108,0,0,0,.11.11h0l.111.111h.11a.107.107,0,0,0,.109.108h.11l.11.113h.221l.11.109h.553a.415.415,0,0,0,.333-.109h.22l.11-.113c.109,0,.109,0,.22-.108h0a.11.11,0,0,0,.112-.111c.111,0,.111,0,.222-.11l.109-.109Z" transform="translate(-8755.778 -14039.891)"/><path class="a" d="M8772.111,14044a.107.107,0,0,0,.109.109h0v.221a.389.389,0,0,0,.11-.221l.111-.109h-.331Z" transform="translate(-8770.011 -14043.447)"/><path class="a" d="M8771.221,14042.225h.332a.109.109,0,0,1,.111-.112h0a.109.109,0,0,1-.111-.111h-.332c-.111.111-.111.111-.22.111h.108Z" transform="translate(-8769.122 -14041.67)"/><path class="a" d="M8756.436,14040.111h.222v-.11h.662a.407.407,0,0,1,.332.11h.222a.108.108,0,0,1,.11.111h.221a.108.108,0,0,0,.11.109c0,.109,0,.109.11.109l.11.111.112.111a.109.109,0,0,1,.11.111l.108.109a.108.108,0,0,0,.111.109h0v.221a.11.11,0,0,1,.11.113v.109a1.387,1.387,0,0,1,.111.661h0a1.406,1.406,0,0,1-.111.666.406.406,0,0,1-.11.33v.109a.109.109,0,0,0-.111.111h0l-.108.111a.109.109,0,0,1-.11.111h0l-.112.109-.221.222h-.11v.108h-.221a.109.109,0,0,1-.11.113h0c-.109,0-.222,0-.222.109h-.994c-.11-.109-.11-.109-.222-.109a.109.109,0,0,1-.11-.113h-.219a.107.107,0,0,0-.111-.108h-.109v-.111a.109.109,0,0,1-.112-.11c-.11,0-.11-.109-.222-.109v-.111a.109.109,0,0,1-.11-.111l-.11-.111h0a.106.106,0,0,0-.108-.109c0-.109,0-.224-.111-.224v-.106c0-.224-.111-.443-.111-.666h0c0-.22.111-.44.111-.661a.341.341,0,0,0,.111-.223c.108-.107.108-.107.108-.221l.11-.109h0a.107.107,0,0,1,.11-.109v-.111c.111,0,.111-.111.222-.111,0-.111.112-.111.112-.221h.221a.108.108,0,0,1,.11-.109h.108a.109.109,0,0,1,.11-.111Zm.222-.11h0c-.11,0-.11,0-.222.11h-.11c-.108,0-.108,0-.108.111H8756c0,.109,0,.109-.109.109l-.112.109-.11.111h-.111v.111l-.11.111a.108.108,0,0,1-.11.109c0,.109,0,.109-.108.223a.346.346,0,0,1-.111.221,1.615,1.615,0,0,0-.111.771,2.423,2.423,0,0,0,.111.887c.111,0,.111.109.111.219.108,0,.108,0,.108.111l.11.111.11.111h0v.109c.111,0,.111.11.222.11a.11.11,0,0,0,.112.111.106.106,0,0,1,.109.108h.111l.11.113h.108a.108.108,0,0,1,.11.109h.554a.107.107,0,0,0,.109.109c.109,0,.109,0,.221-.109h.554a.108.108,0,0,1,.11-.109c.11,0,.11,0,.221-.113a.107.107,0,0,0,.11-.108c.11,0,.11,0,.221-.111l.112-.11h0l.11-.109.108-.111a.109.109,0,0,1,.111-.111v-.111a.337.337,0,0,0,.11-.219,2.581,2.581,0,0,0,.222-.887,1.577,1.577,0,0,0-.222-.771c0-.113,0-.221-.11-.221v-.223c-.111,0-.111,0-.111-.109a.107.107,0,0,1-.108-.111h0c-.11,0-.11,0-.11-.111l-.112-.111c-.11,0-.11-.109-.221-.109l-.11-.109c-.11,0-.11-.111-.221-.111h-.11a.341.341,0,0,0-.222-.11h-.994Z" transform="translate(-8754.89 -14039.891)"/><path class="a" d="M8755.547,14039.112h.331c.111,0,.111,0,.222-.113h.331a.4.4,0,0,0,.332.113h.221a.107.107,0,0,0,.11.107c.112,0,.112,0,.221.113a.109.109,0,0,1,.111.11c.11,0,.11,0,.222.109l.11.11.109.109h0l.111.113a.106.106,0,0,0,.11.107v.111c.11.111.11.111.11.224a1.872,1.872,0,0,1,0,1.764c0,.114,0,.114-.11.222v.112l-.11.109a.109.109,0,0,1-.111.111.107.107,0,0,1-.109.109h0l-.11.109-.222.224h-.111c-.108.109-.108.109-.221.109l-.11.111h-.221c-.11,0-.221.111-.332.111h-.553c0-.111,0-.111-.109-.111h-.222l-.109-.111h-.109a.108.108,0,0,1-.111-.109H8755c0-.11-.11-.11-.11-.224-.111,0-.111-.109-.221-.109v-.109h0c-.11,0-.11,0-.11-.111a.108.108,0,0,1-.11-.109.11.11,0,0,0-.112-.112c0-.107,0-.107-.109-.222a3.548,3.548,0,0,1,0-1.764c.109-.112.109-.112.109-.224a.109.109,0,0,0,.112-.111l.11-.107a.11.11,0,0,1,.11-.113v-.109h.109a3985.517,3985.517,0,0,1,.222-.22l.111-.11h.11l.111-.113h.109A.107.107,0,0,0,8755.547,14039.112Zm.665-.113a2.211,2.211,0,1,0,2.208,2.209A2.217,2.217,0,0,0,8756.212,14039Z" transform="translate(-8754 -14038.999)"/><path class="a" d="M8759.33,14049h0c-.109,0-.109,0-.22.111v.109h0a.341.341,0,0,0-.11.223v0h.11v-.114c.11,0,.11,0,.11-.108C8759.33,14049.221,8759.33,14049.111,8759.33,14049Z" transform="translate(-8758.447 -14047.895)"/><path class="a" d="M8760.221,14049c0,.111,0,.221-.108.221,0,.108,0,.108-.111.223h.329v-.223h0a.107.107,0,0,1-.109-.109Z" transform="translate(-8759.337 -14047.895)"/><path class="a" d="M8759.442,14053h-.332a.109.109,0,0,0-.11.111h.664l-.111-.111Z" transform="translate(-8758.447 -14051.451)"/><path class="a" d="M8760.33,14054a.108.108,0,0,1-.109.111c-.108,0-.108,0-.22-.111h0v.111c.111.109.22.217.22.33h0c0-.113.109-.221.109-.33a.109.109,0,0,0,.111-.111Z" transform="translate(-8759.337 -14052.344)"/><path class="a" d="M8759.33,14054.553a.829.829,0,0,0-.22-.439h0V14054H8759v.111c0,.109,0,.109.11.217v.113C8759.221,14054.443,8759.221,14054.553,8759.33,14054.553Z" transform="translate(-8758.447 -14052.344)"/><path class="a" d="M8757.333,14055.331v-.111c-.111-.111-.111-.111-.111-.219,0,.107-.112.107-.112.219a.108.108,0,0,1-.108.111v0h.332c.111,0,.111,0,.111.109C8757.444,14055.331,8757.444,14055.331,8757.333,14055.331Z" transform="translate(-8756.67 -14053.232)"/><path class="a" d="M8756.11,14054.443c.11-.113.11-.113.11-.221h0c.109-.109.109-.109.109-.221h-.109v.111h-.11c0,.109,0,.109-.11.217v.223h0Z" transform="translate(-8755.778 -14052.344)"/><path class="a" d="M8756.11,14059.112H8756v.107a.35.35,0,0,1,.11.223h0a.11.11,0,0,1,.11.113h.109v-.113a.107.107,0,0,1-.109-.109C8756.221,14059.22,8756.221,14059.22,8756.11,14059.112Z" transform="translate(-8755.778 -14056.794)"/><path class="a" d="M8757,14060l.108.109a.38.38,0,0,0,.112.221.342.342,0,0,1,.111-.221V14060H8757Z" transform="translate(-8756.67 -14057.682)"/><path class="a" d="M8756.221,14058.221h.223c.11,0,.11-.113.221-.113h-.221V14058h-.223l-.11.107H8756a.11.11,0,0,1,.11.113Z" transform="translate(-8755.778 -14055.9)"/><path class="a" d="M8759.11,14059.22v.113c-.11,0-.11,0-.11.109v.113h.11v-.113a.573.573,0,0,0,.22-.439C8759.221,14059.112,8759.221,14059.112,8759.11,14059.22Z" transform="translate(-8758.447 -14056.794)"/><path class="a" d="M8762,14059c0,.217.112.33.112.439h.11v.113h.11c0-.113,0-.223-.11-.223,0-.113,0-.113-.11-.113v-.107L8762,14059Z" transform="translate(-8761.116 -14056.794)"/><path class="a" d="M8763,14060l.111.109a.345.345,0,0,1,.109.221h0a.345.345,0,0,1,.109-.221h0l.11-.109H8763Z" transform="translate(-8762.006 -14057.682)"/><path class="a" d="M8762.223,14058.221h.33c0-.113,0-.113.11-.113h-.11l-.108-.107h-.222l-.11.107H8762c.112,0,.112,0,.112.113Z" transform="translate(-8761.116 -14055.9)"/><path class="a" d="M8763.111,14055.331h.329v0a.109.109,0,0,1-.11-.111h0c-.109-.111-.109-.111-.109-.219h0c0,.107,0,.107-.109.219a.109.109,0,0,1-.111.111v0Z" transform="translate(-8762.006 -14053.232)"/><path class="a" d="M8762.112,14054.443l.11-.113a.4.4,0,0,0,.11-.328h-.11v.111h-.11c0,.109-.112.217-.112.439h0l.112-.109Z" transform="translate(-8761.116 -14052.344)"/><path class="a" d="M8765.22,14059.112l-.11.107v.113c-.108,0-.108.109-.108.223h.108c0-.113,0-.113.11-.113.111-.109.111-.223.111-.439h0Z" transform="translate(-8763.785 -14056.794)"/><path class="a" d="M8760.33,14060.33c0-.109-.109-.221-.109-.33h0c0,.109-.108.221-.22.33v.112h.44Z" transform="translate(-8759.337 -14057.682)"/><path class="a" d="M8759.442,14064H8759v.114h.553a.11.11,0,0,0,.111-.114h-.222Z" transform="translate(-8758.447 -14061.236)"/><path class="a" d="M8766.222,14060c0,.109-.111.221-.111.33l-.11.112h.442v-.112c-.111-.109-.221-.221-.221-.33Z" transform="translate(-8764.672 -14057.682)"/><path class="a" d="M8765.331,14064H8765v.114h.66V14064h-.33Z" transform="translate(-8763.785 -14061.236)"/><path class="a" d="M8766.222,14065H8766l.11.109a1.12,1.12,0,0,1,.111.329h0c0-.218.109-.329.221-.329V14065h-.221Z" transform="translate(-8764.672 -14062.129)"/><path class="a" d="M8765.331,14065.332c0-.11-.111-.11-.111-.222a.107.107,0,0,1-.11-.109H8765v.109l.108.111c0,.11,0,.11.11.11,0,.107,0,.107.111.219h0Z" transform="translate(-8763.785 -14062.129)"/><path class="a" d="M8763.33,14066.221a.138.138,0,1,0-.219,0l-.111.111h.44Z" transform="translate(-8762.006 -14063.016)"/><path class="a" d="M8762.223,14065.222c.11-.111.11-.111.11-.221h-.11a.107.107,0,0,1-.11.109v.111a.4.4,0,0,0-.112.329h0a.11.11,0,0,1,.112-.111v-.107C8762.223,14065.332,8762.223,14065.332,8762.223,14065.222Z" transform="translate(-8761.116 -14062.129)"/><path class="a" d="M8760.33,14065.222v-.111l.111-.109H8760v.109c.111,0,.111,0,.111.111h0c.108,0,.108.11.108.218h0C8760.221,14065.332,8760.221,14065.222,8760.33,14065.222Z" transform="translate(-8759.337 -14062.129)"/><path class="a" d="M8759.221,14065.222c0-.111,0-.111-.11-.111V14065H8759c0,.109,0,.109.11.221h0v.11c.11.107.11.107.22.219v-.111A.339.339,0,0,0,8759.221,14065.222Z" transform="translate(-8758.447 -14062.129)"/><path class="a" d="M8762.112,14069a.108.108,0,0,1-.112.109h.223l.11.113h.111c0-.113,0-.113.108-.113h.11a.107.107,0,0,1-.11-.109h-.44Z" transform="translate(-8761.116 -14065.686)"/><path class="a" d="M8762.112,14070.109a.108.108,0,0,0-.112-.109v.109c0,.111.112.221.112.332.11,0,.11,0,.11.109h.11a.4.4,0,0,0-.11-.33h0Z" transform="translate(-8761.116 -14066.574)"/><path class="a" d="M8763,14070v.109a.109.109,0,0,1,.111.111h0c.109.109.109.109.109.221,0-.111,0-.111.109-.221h0a.109.109,0,0,1,.11-.111v0H8763Z" transform="translate(-8762.006 -14066.574)"/><path class="a" d="M8765.22,14070.109a.109.109,0,0,0-.11.111h0a.408.408,0,0,0-.108.33h.108c0-.109,0-.109.11-.109v-.111a.4.4,0,0,0,.111-.33h0A.108.108,0,0,0,8765.22,14070.109Z" transform="translate(-8763.785 -14066.574)"/><path class="a" d="M8766.222,14071c0,.109,0,.109-.111.222v.109c-.11,0-.11,0-.11.113a.11.11,0,0,1,.11-.113h.332v0c-.111-.109-.221-.222-.221-.331Z" transform="translate(-8764.672 -14067.464)"/><path class="a" d="M8765.553,14074.109c-.11,0-.11-.109-.222-.109a.108.108,0,0,0-.111.109h-.11c0,.111,0,.111.11.111h.333v-.111h0Z" transform="translate(-8763.785 -14070.132)"/><path class="a" d="M8768.221,14070.441h0v.109h.11v-.109c0-.111,0-.111-.11-.221v-.111c-.11,0-.11-.109-.221-.109A.843.843,0,0,0,8768.221,14070.441Z" transform="translate(-8766.452 -14066.574)"/><path class="a" d="M8769.109,14070.221c.112.109.112.109.112.221,0-.111.111-.221.223-.332v0h-.335a.107.107,0,0,1-.109-.109c0,.109,0,.109.109.109Z" transform="translate(-8767.342 -14066.574)"/><path class="a" d="M8768.331,14069.223c.112,0,.112-.113.222-.113h.111l-.111-.109h-.332c-.11,0-.11.109-.221.109h.221Z" transform="translate(-8766.452 -14065.686)"/><path class="a" d="M8769.222,14066.332h.223l-.111-.111h0a.4.4,0,0,0-.111-.222.335.335,0,0,1-.112.222v.111h.112Z" transform="translate(-8767.342 -14063.016)"/><path class="a" d="M8768.221,14065.332v-.11c.11,0,.11,0,.11-.111V14065h-.11v.109a.576.576,0,0,0-.221.44C8768.11,14065.439,8768.11,14065.439,8768.221,14065.332Z" transform="translate(-8766.452 -14062.129)"/><path class="a" d="M8771,14065a.391.391,0,0,0,.108.221.109.109,0,0,0,.111.11c0,.107.111.107.111.219h0v-.219c0-.11-.111-.11-.111-.222-.111-.109-.111-.109-.22-.109Z" transform="translate(-8769.122 -14062.129)"/><path class="a" d="M8771.109,14064.113h.555V14064H8771Z" transform="translate(-8769.122 -14061.236)"/><path class="a" d="M8772.221,14065H8772a.108.108,0,0,1,.111.109c.109,0,.109.222.109.329.11-.107.11-.329.222-.329V14065h-.222Z" transform="translate(-8770.011 -14062.129)"/><path class="a" d="M8774.223,14065.11c-.11,0-.11.111-.11.222a.109.109,0,0,1-.112.107v.111h.112c0-.111,0-.111.11-.219v-.11c.108,0,.108-.111.108-.221h0A.106.106,0,0,0,8774.223,14065.11Z" transform="translate(-8771.791 -14062.129)"/><path class="a" d="M8775.221,14066v.222c-.109,0-.109,0-.109.111h.332C8775.332,14066.221,8775.332,14066.113,8775.221,14066Z" transform="translate(-8772.684 -14063.016)"/><path class="a" d="M8775.443,14069h-.332a.107.107,0,0,0-.109.109h.109a.2.2,0,0,0,.332,0h.11a.107.107,0,0,0-.11-.109Z" transform="translate(-8772.684 -14065.686)"/><path class="a" d="M8775.443,14070.109h-.332a.107.107,0,0,0-.109-.109.107.107,0,0,0,.109.109.41.41,0,0,1,.109.332c.111-.111.111-.221.223-.332l.11-.109A.107.107,0,0,0,8775.443,14070.109Z" transform="translate(-8772.684 -14066.574)"/><path class="a" d="M8774.331,14070.441c0-.111-.108-.221-.108-.332-.11,0-.11-.109-.223-.109h0c0,.109.112.221.112.33a.108.108,0,0,1,.11.111l.108.109h0v-.109Z" transform="translate(-8771.791 -14066.574)"/><path class="a" d="M8772.331,14071.222c0-.112-.11-.112-.11-.222v.222h0a.107.107,0,0,0-.109.109.11.11,0,0,0-.111.113l.111-.113h.331v0Z" transform="translate(-8770.011 -14067.464)"/><path class="a" d="M8771.221,14070.33a.4.4,0,0,0,.111-.33h0l-.111.109a.342.342,0,0,0-.111.221c-.108.111-.108.111-.108.221h0c.108,0,.108-.109.22-.109Z" transform="translate(-8769.122 -14066.574)"/><path class="a" d="M8771.332,14074l-.111.109h-.111a.109.109,0,0,0,.111.111h.332l.111-.111h-.111C8771.442,14074.109,8771.442,14074,8771.332,14074Z" transform="translate(-8769.122 -14070.132)"/><path class="a" d="M8778.109,14074.109H8778a.108.108,0,0,0,.109.111h.334a.109.109,0,0,0,.11-.111h-.11l-.113-.109C8778.22,14074,8778.109,14074,8778.109,14074.109Z" transform="translate(-8775.349 -14070.132)"/><path class="a" d="M8778,14071.444a.11.11,0,0,0,.109-.113h.334a.11.11,0,0,0,.11.113l-.11-.113-.113-.109h0V14071h0c-.11.109-.11.222-.221.331Z" transform="translate(-8775.349 -14067.464)"/><path class="a" d="M8778,14070.441h.109a.666.666,0,0,0,.11-.441l-.11.109a.345.345,0,0,0-.109.221v.221h0Z" transform="translate(-8775.349 -14066.574)"/><path class="a" d="M8781,14070v.33c.111,0,.111,0,.111.111a.39.39,0,0,0,.219.109h0a.411.411,0,0,1-.107-.33l-.111-.111L8781,14070Z" transform="translate(-8778.017 -14066.574)"/><path class="a" d="M8782,14070.109l.109.111h0c0,.109,0,.109.111.221h0v-.221h0a.108.108,0,0,0,.109-.111.11.11,0,0,0,.113-.109.11.11,0,0,0-.113.109H8782v0Z" transform="translate(-8778.907 -14066.574)"/><path class="a" d="M8781.111,14069.109c.111,0,.111.113.219.113l.111-.113h.223c-.111,0-.111-.109-.223-.109h-.33l-.111.109Z" transform="translate(-8778.017 -14065.686)"/><path class="a" d="M8784.111,14070.109v.111a.4.4,0,0,0-.111.33h0l.111-.109a.345.345,0,0,0,.109-.221c0-.111.109-.111.109-.221h-.109A.107.107,0,0,1,8784.111,14070.109Z" transform="translate(-8780.686 -14066.574)"/><path class="a" d="M8782.221,14066.332h.109a.409.409,0,0,1-.109-.333h0c-.111.114-.111.222-.221.333h.221Z" transform="translate(-8778.907 -14063.016)"/><path class="a" d="M8781.111,14065.332c.111,0,.111-.11.111-.222a.107.107,0,0,1,.107-.109h0c-.107,0-.219,0-.219.109a.388.388,0,0,0-.111.222v.219C8781,14065.439,8781.111,14065.439,8781.111,14065.332Z" transform="translate(-8778.017 -14062.129)"/><path class="a" d="M8778.33,14065.439c0-.107,0-.329.113-.329,0-.109,0-.109.11-.109H8778c.109,0,.109,0,.109.109.11,0,.11.111.221.329Z" transform="translate(-8775.349 -14062.129)"/><path class="a" d="M8778.22,14065.551c0-.219,0-.329-.11-.44h0L8778,14065h0v.109c0,.111,0,.222.109.222C8778.109,14065.439,8778.22,14065.439,8778.22,14065.551Z" transform="translate(-8775.349 -14062.129)"/><path class="a" d="M8778.109,14064.113h.334c.11,0,.11,0,.11-.114H8778v.114Z" transform="translate(-8775.349 -14061.236)"/><path class="a" d="M8784,14065a.4.4,0,0,0,.111.331v.107c.109,0,.109,0,.109.111h.109v-.111a.374.374,0,0,1-.109-.218,8.818,8.818,0,0,0-.221-.221Z" transform="translate(-8780.686 -14062.129)"/><path class="a" d="M8785,14065.11a.109.109,0,0,1,.111.111h0a.385.385,0,0,1,.11.218h0v-.218l.108-.111a.109.109,0,0,1,.112-.109H8785Z" transform="translate(-8781.574 -14062.129)"/><path class="a" d="M8787.111,14065.11v.111a.4.4,0,0,0-.111.329h0c0-.111.111-.111.111-.219h.11v-.11h0c0-.111.11-.111.11-.221h-.11A.107.107,0,0,1,8787.111,14065.11Z" transform="translate(-8783.354 -14062.129)"/><path class="a" d="M8784.111,14059.442a.576.576,0,0,0,.219-.439h0a.107.107,0,0,0-.109.109h-.109a.829.829,0,0,0-.111.443h.111Z" transform="translate(-8780.686 -14056.794)"/><path class="a" d="M8782.221,14060.33a.406.406,0,0,1,.109-.33H8782a.107.107,0,0,0,.109.109h0c0,.111,0,.221.111.221Z" transform="translate(-8778.907 -14057.682)"/><path class="a" d="M8778.443,14060.33a.4.4,0,0,1-.113-.33h0c-.11.109-.11.221-.221.33,0,.112,0,.112-.109.112h.554C8778.443,14060.442,8778.443,14060.442,8778.443,14060.33Z" transform="translate(-8775.349 -14057.682)"/><path class="a" d="M8785.222,14060c-.11.109-.11.221-.222.33v.112h.442a.11.11,0,0,1-.112-.112.408.408,0,0,1-.108-.33Z" transform="translate(-8781.574 -14057.682)"/><path class="a" d="M8788.112,14060.221a.107.107,0,0,1,.109.109.342.342,0,0,1,.111-.221V14060H8788l.112.109Z" transform="translate(-8784.243 -14057.682)"/><path class="a" d="M8790.109,14059.333c-.109,0-.109,0-.109.109v.113h.109v-.113a.108.108,0,0,0,.111-.109.405.405,0,0,0,.111-.33.108.108,0,0,0-.111.109l-.111.107Z" transform="translate(-8786.023 -14056.794)"/><path class="a" d="M8787.332,14058.221h.11a.11.11,0,0,0,.11-.113h-.11V14058h-.221l-.11.107H8787l.111.113h.221Z" transform="translate(-8783.354 -14055.9)"/><path class="a" d="M8788.222,14055.331h.111c.111,0,.111,0,.111.109,0-.109,0-.109-.111-.109v-.111c-.111-.111-.111-.111-.111-.219,0,.107-.109.107-.109.219a.109.109,0,0,1-.112.111v0h.222Z" transform="translate(-8784.243 -14053.232)"/><path class="a" d="M8787.111,14054.443c.11-.113.11-.113.11-.221h0c.11-.109.11-.109.11-.221h-.11v.111h-.11c-.111.109-.111.217-.111.439Z" transform="translate(-8783.354 -14052.344)"/><path class="a" d="M8790,14054.113c0,.109,0,.109.109.217v.113c.111,0,.111,0,.111.109h.111c0-.109,0-.223-.111-.223,0-.107,0-.107-.111-.217h0V14054H8790Z" transform="translate(-8786.023 -14052.344)"/><path class="a" d="M8785.222,14054.443a.4.4,0,0,1,.108-.33l.112-.111h-.112a.107.107,0,0,1-.108.111c-.11,0-.11,0-.222-.111h0v.111c.111.109.111.217.222.33Z" transform="translate(-8781.574 -14052.344)"/><path class="a" d="M8784.33,14054.553a.834.834,0,0,0-.219-.439h0L8784,14054h0a.662.662,0,0,0,.111.441h0a.107.107,0,0,1,.109.109Z" transform="translate(-8780.686 -14052.344)"/><path class="a" d="M8784.111,14053.11h.441V14053h-.441a.109.109,0,0,0-.111.111h.111Z" transform="translate(-8780.686 -14051.451)"/><path class="a" d="M8785,14049.443h.33c0-.114,0-.114-.108-.223h0v-.109l-.11.109c0,.108-.111.108-.111.223Z" transform="translate(-8781.574 -14047.895)"/><path class="a" d="M8784,14049.443a.11.11,0,0,0,.111-.114.107.107,0,0,0,.109-.108.382.382,0,0,0,.109-.221h-.109a.108.108,0,0,0-.109.111c-.111.109-.111.218-.111.441Z" transform="translate(-8780.686 -14047.895)"/><path class="a" d="M8787.111,14049.221v.108l.11.114h.11v0a.4.4,0,0,1-.11-.223h0a.108.108,0,0,0-.11-.109.109.109,0,0,0-.111-.111h0C8787,14049.111,8787,14049.221,8787.111,14049.221Z" transform="translate(-8783.354 -14047.895)"/><path class="a" d="M8782.221,14049.443c0-.223,0-.332.109-.443H8782c.109.111.109.221.221.443Z" transform="translate(-8778.907 -14047.895)"/><path class="a" d="M8781.223,14049.329c0-.108,0-.218-.111-.218a.109.109,0,0,0-.111-.111h0v.111c0,.109,0,.218.111.218,0,.114.111.114.219.224C8781.223,14049.443,8781.223,14049.443,8781.223,14049.329Z" transform="translate(-8778.017 -14047.895)"/><path class="a" d="M8781.111,14043.441l.111-.111a.413.413,0,0,1,.107-.33h-.107a.109.109,0,0,1-.111.111c0,.109,0,.109-.111.109v.33h0Z" transform="translate(-8778.017 -14042.557)"/><path class="a" d="M8778.33,14044.33v-.221l.113-.109h-.334c.11.109.11.219.221.33Z" transform="translate(-8775.349 -14043.447)"/><path class="a" d="M8778.22,14043.551a.658.658,0,0,0-.11-.439h0a.108.108,0,0,1-.109-.111h0v.111a.408.408,0,0,0,.109.33Z" transform="translate(-8775.349 -14042.557)"/><path class="a" d="M8775.443,14044.33c-.111-.111-.111-.221-.223-.33a.408.408,0,0,1-.109.33l-.109.111h.109a.207.207,0,0,1,.332,0h.11A.109.109,0,0,1,8775.443,14044.33Z" transform="translate(-8772.684 -14043.447)"/><path class="a" d="M8774.223,14043.441c0-.111.108-.111.108-.221V14043h0a8.741,8.741,0,0,1-.219.221c0,.109-.112.221-.112.33C8774.112,14043.551,8774.112,14043.441,8774.223,14043.441Z" transform="translate(-8771.791 -14042.557)"/><path class="a" d="M8778.109,14042.112c0,.112.11.112.221.112h.113l.11-.112-.11-.111h-.334a.108.108,0,0,1-.109.111h.109Z" transform="translate(-8775.349 -14041.67)"/><path class="a" d="M8782.221,14044c-.111.109-.111.109-.111.219a.108.108,0,0,1-.109.111v.111h0c.109-.111.109-.111.221-.111a.108.108,0,0,1,.109.111h.113l-.113-.111-.109-.111h0V14044Z" transform="translate(-8778.907 -14043.447)"/><path class="a" d="M8784,14043a.4.4,0,0,0,.111.33v.111c.109,0,.109.109.219.109h0a.107.107,0,0,0-.109-.109.4.4,0,0,0-.109-.33L8784,14043Z" transform="translate(-8780.686 -14042.557)"/><path class="a" d="M8781.441,14048H8781a.108.108,0,0,0,.111.107h.33c.111,0,.111,0,.111-.107h-.111Z" transform="translate(-8778.017 -14047.008)"/><path class="a" d="M8787,14059c0,.217,0,.33.111.439h0a.11.11,0,0,1,.11.113h.11v-.113a.108.108,0,0,1-.11-.109h0c0-.113,0-.113-.11-.221A.108.108,0,0,1,8787,14059Z" transform="translate(-8783.354 -14056.794)"/><path class="a" d="M8784.661,14064H8784v.114h.553l.108-.114Z" transform="translate(-8780.686 -14061.236)"/></g><g transform="translate(50.717 8.397)"><path class="b" d="M10030.739,13758.866H10024V13755h17.348v3.866h-6.739v19.117h-3.869Z" transform="translate(-9906.102 -13755)"/><path class="b" d="M9829.868,13758.866v19.006H9826V13755h8.508a7.164,7.164,0,0,1,7.512,7.4,6.888,6.888,0,0,1-5.523,6.962l7.182,8.507h-4.972l-8.286-9.945v-1.987h4.088a3.547,3.547,0,0,0,3.756-3.536,3.482,3.482,0,0,0-3.756-3.537Z" transform="translate(-9729.981 -13755)"/><path class="b" d="M9610.476,13771.463h-7.625c-.886,1.989-1.77,4.089-2.543,6.3l-.109.109H9596l9.279-22.872h2.763l9.171,22.872h-4.086Zm-3.76-10.166-2.429,6.519h4.751Z" transform="translate(-9525.394 -13755)"/><path class="b" d="M9414.607,13763.065l5.966-8.065h4.642l-8.286,11.492c1.656,2.208,3.645,4.971,5.3,7.292l-1.659,4.088-5.966-8.066-5.855,8.066H9404l8.287-11.38c-2.653-3.648-5.306-7.405-7.957-11.05l-.33-.442h4.751Z" transform="translate(-9354.609 -13755)"/><path class="b" d="M9155,13766.379a11.4,11.4,0,0,1,3.423-8.065,11.629,11.629,0,0,1,8.178-3.313,12.157,12.157,0,0,1,8.4,3.313,11.608,11.608,0,0,1,0,16.244,12.154,12.154,0,0,1-8.4,3.314,11.626,11.626,0,0,1-8.178-3.314A11.455,11.455,0,0,1,9155,13766.379Zm19.446,0a7.9,7.9,0,0,0-2.211-5.412,8.029,8.029,0,0,0-5.635-2.21,7.709,7.709,0,0,0-5.416,2.21,7.355,7.355,0,0,0-2.319,5.412,7.6,7.6,0,0,0,2.319,5.527,7.7,7.7,0,0,0,5.416,2.208,7.557,7.557,0,0,0,7.846-7.735Z" transform="translate(-9133.124 -13755)"/><path class="b" d="M8960.867,13758.866v19.006H8957V13755h8.51a7.166,7.166,0,0,1,7.514,7.4,6.892,6.892,0,0,1-5.526,6.962l7.183,8.507h-4.973l-8.287-9.945v-1.987h4.09a3.547,3.547,0,0,0,3.755-3.536,3.482,3.482,0,0,0-3.755-3.537Z" transform="translate(-8957 -13755)"/></g><path class="c" d="M8962.637,13999.872l1.546,4.309h-3.093Zm3.646,9.5h1.878L8963.3,13997h-1.324l-4.973,12.376h1.989c.331-1,1-2.433,1.436-3.536h4.419Z" transform="translate(-8906.282 -13961.862)"/><path class="c" d="M9116.823,14002.422c-.662-3.2-3.424-4.422-5.856-4.422a5.928,5.928,0,0,0-5.966,6.188,5.863,5.863,0,0,0,5.966,6.188,6.052,6.052,0,0,0,5.636-3.869v.113a16.442,16.442,0,0,0,.332-2.211h-6.63v1.769h4.53a3.853,3.853,0,0,1-3.868,2.542,4.484,4.484,0,0,1,0-8.949c1.658,0,3.535.663,3.979,2.651Z" transform="translate(-9037.93 -13962.752)"/><path class="c" d="M9272.878,14005.963h5.526v-1.771h-5.526v-3.425h5.636V13999H9271v12.153h7.513v-1.767h-5.636Z" transform="translate(-9185.587 -13963.642)"/><path class="c" d="M9398.768,14010.267v-8.507l5.856,8.507h1.436V13998h-1.768v8.729l-5.966-8.729H9397v12.267Z" transform="translate(-9297.665 -13962.752)"/><path class="c" d="M9538,14004.188a6.169,6.169,0,0,0,1.771,4.422,5.65,5.65,0,0,0,4.2,1.766,6.011,6.011,0,0,0,5.855-4.641h-1.768a4.145,4.145,0,0,1-4.088,2.875,3.948,3.948,0,0,1-2.984-1.329,4.277,4.277,0,0,1,0-6.188,3.955,3.955,0,0,1,2.984-1.322,3.914,3.914,0,0,1,3.977,2.761h1.77a5.711,5.711,0,0,0-5.746-4.531,5.647,5.647,0,0,0-4.2,1.771A6.556,6.556,0,0,0,9538,14004.188Z" transform="translate(-9423.085 -13962.752)"/><path class="c" d="M9689,13999l4.529,7.181v4.973h1.767v-4.973l4.531-7.181h-2.1l-3.315,5.3-3.314-5.3Z" transform="translate(-9557.401 -13963.642)"/></svg>