<svg xmlns="http://www.w3.org/2000/svg" xmlns:xlink="http://www.w3.org/1999/xlink" width="15" height="15" viewBox="0 0 15 15"><defs><style>.a,.d{fill:#ff620a;}.a{stroke:#707070;}.b{clip-path:url(#a);}.c{fill:none;}</style><clipPath id="a"><rect class="a" width="15" height="15" transform="translate(-0.271)"/></clipPath></defs><g class="b" transform="translate(0.271)"><g transform="translate(0 0)"><path class="c" d="M12.4,12.4a.781.781,0,0,1-.72.214,8.016,8.016,0,0,1-3.553-1.792A8.031,8.031,0,0,1,6.33,7.265a.788.788,0,0,1,.214-.72l1.021-1.02L5.524,3.484,3.944,5.064a10.5,10.5,0,0,0,2.928,7,10.346,10.346,0,0,0,7,2.93l1.582-1.582-2.041-2.041Z" transform="translate(-2.363 -1.578)"/><path class="d" d="M13.974,9.7a.788.788,0,0,0-1.116,0L11.6,10.96A5.91,5.91,0,0,1,9.239,9.7,5.91,5.91,0,0,1,7.981,7.34L9.239,6.082a.788.788,0,0,0,0-1.116L6.082,1.81a.788.788,0,0,0-1.116,0L2.6,4.177a.786.786,0,0,0-.23.512,11.913,11.913,0,0,0,3.386,8.5,11.964,11.964,0,0,0,8.23,3.393c.173,0,.266-.006.266-.006a.792.792,0,0,0,.512-.23l2.368-2.368a.788.788,0,0,0,0-1.116Zm-.1,5.3a10.342,10.342,0,0,1-7-2.93,10.5,10.5,0,0,1-2.928-7L5.524,3.484,7.565,5.524l-1.02,1.02a.789.789,0,0,0-.215.72,8.016,8.016,0,0,0,1.792,3.553,8.016,8.016,0,0,0,3.553,1.792.782.782,0,0,0,.72-.214l1.021-1.02,2.041,2.041Z" transform="translate(-2.363 -1.578)"/></g></g></svg>